<mxfile host="Electron" modified="2023-05-29T12:09:23.791Z" agent="Mozilla/5.0 (Windows NT 10.0; Win64; x64) AppleWebKit/537.36 (KHTML, like Gecko) draw.io/21.2.8 Chrome/112.0.5615.165 Electron/24.2.0 Safari/537.36" etag="slB8GrtK7yV3voWpv_3C" version="21.2.8" type="device">
  <diagram name="Pagina-1" id="AHyJ-n_UTIYTSlR7aWz2">
    <mxGraphModel dx="714" dy="418" grid="1" gridSize="10" guides="1" tooltips="1" connect="1" arrows="1" fold="1" page="1" pageScale="1" pageWidth="827" pageHeight="1169" math="0" shadow="0">
      <root>
        <mxCell id="0" />
        <mxCell id="1" parent="0" />
        <mxCell id="OjWA-4CbQiJTztgsCJEO-2" value="&lt;font style=&quot;font-size: 14px;&quot;&gt;Nodo i&lt;/font&gt;" style="ellipse;whiteSpace=wrap;html=1;aspect=fixed;" parent="1" vertex="1">
          <mxGeometry x="39" y="50" width="80" height="80" as="geometry" />
        </mxCell>
        <mxCell id="c4gAegCeVjxDiy2k266P-1" value="&lt;font style=&quot;font-size: 14px;&quot;&gt;Nodo j&lt;/font&gt;" style="ellipse;whiteSpace=wrap;html=1;aspect=fixed;" vertex="1" parent="1">
          <mxGeometry x="280" y="50" width="80" height="80" as="geometry" />
        </mxCell>
        <mxCell id="c4gAegCeVjxDiy2k266P-2" value="" style="endArrow=classic;html=1;rounded=0;strokeWidth=2;exitX=1;exitY=0.5;exitDx=0;exitDy=0;entryX=0;entryY=0.5;entryDx=0;entryDy=0;" edge="1" parent="1" source="OjWA-4CbQiJTztgsCJEO-2" target="c4gAegCeVjxDiy2k266P-1">
          <mxGeometry width="50" height="50" relative="1" as="geometry">
            <mxPoint x="210" y="240" as="sourcePoint" />
            <mxPoint x="260" y="190" as="targetPoint" />
          </mxGeometry>
        </mxCell>
        <mxCell id="c4gAegCeVjxDiy2k266P-5" value="n_{i}" style="text;html=1;strokeColor=none;fillColor=none;align=center;verticalAlign=middle;whiteSpace=wrap;rounded=0;" vertex="1" parent="1">
          <mxGeometry x="49" y="130" width="60" height="30" as="geometry" />
        </mxCell>
        <mxCell id="c4gAegCeVjxDiy2k266P-6" value="n_{j}" style="text;html=1;strokeColor=none;fillColor=none;align=center;verticalAlign=middle;whiteSpace=wrap;rounded=0;" vertex="1" parent="1">
          <mxGeometry x="290" y="130" width="60" height="30" as="geometry" />
        </mxCell>
        <mxCell id="c4gAegCeVjxDiy2k266P-7" value="e_{ij}" style="text;whiteSpace=wrap;html=1;" vertex="1" parent="1">
          <mxGeometry x="186" y="56" width="30" height="30" as="geometry" />
        </mxCell>
      </root>
    </mxGraphModel>
  </diagram>
</mxfile>
